<?xml version="1.0" encoding="iso-8859-1"?>
<!-- Uploaded to: SVG Repo, www.svgrepo.com, Generator: SVG Repo Mixer Tools -->
<svg fill="#000000" height="800px" width="800px" version="1.1" id="Layer_1" xmlns="http://www.w3.org/2000/svg" xmlns:xlink="http://www.w3.org/1999/xlink" 
	 viewBox="0 0 511.999 511.999" xml:space="preserve">
<g>
	<g>
		<path d="M497.027,174.279c-9.672-9.669-22.529-14.995-36.206-14.995c-13.677,0-26.534,5.326-36.206,14.997
			c-19.962,19.964-19.962,52.448,0.001,72.414c4.283,4.283,9.193,7.708,14.52,10.202c-9.548,45.36-33.505,86.386-69.089,118.577
			h-59.556c52.908-35.829,87.75-96.415,87.75-164.985c0-109.795-89.325-199.12-199.12-199.12S0,100.691,0,210.486
			c0,68.57,34.841,129.156,87.75,164.985H22.757v125.161h352.728v-85.31c25.77-19.755,47.362-43.39,64.235-70.378
			c16.501-26.395,27.771-54.859,33.594-84.783c8.898-2.221,17.061-6.817,23.715-13.471
			C516.99,226.727,516.989,194.243,497.027,174.279z M34.135,210.486c0-90.973,74.012-164.985,164.985-164.985
			s164.985,74.012,164.985,164.985S290.093,375.471,199.12,375.471S34.135,301.459,34.135,210.486z M341.349,466.498H56.892v-56.892
			h284.458V466.498z M472.892,222.555c-3.223,3.223-7.511,5-12.069,5c-4.559,0-8.845-1.776-12.068-4.999
			c-6.655-6.655-6.655-17.484,0-24.139c3.224-3.222,7.51-4.999,12.068-4.999c4.558,0,8.846,1.776,12.069,4.999
			C479.544,205.071,479.544,215.901,472.892,222.555z"/>
	</g>
</g>
<g>
	<g>
		<path d="M235.326,174.279c-9.672-9.669-22.53-14.995-36.206-14.995c-13.677,0-26.534,5.326-36.206,14.997
			c-19.962,19.964-19.962,52.448,0.001,72.414c9.67,9.669,22.528,14.994,36.205,14.995c13.676,0,26.534-5.326,36.207-14.998
			C255.288,226.727,255.288,194.243,235.326,174.279z M211.19,222.555c-3.223,3.223-7.511,5-12.069,5
			c-4.559,0-8.845-1.776-12.068-4.999c-6.655-6.655-6.655-17.484,0-24.139c3.223-3.222,7.51-4.999,12.068-4.999
			c4.559,0,8.846,1.776,12.069,4.999C217.843,205.071,217.843,215.901,211.19,222.555z"/>
	</g>
</g>
</svg>